<svg xmlns="http://www.w3.org/2000/svg" viewBox="0 0 18 12" role="img" aria-label="Flag of Syria">
  <rect width="18" height="4" y="0" fill="#007a3d"/>
  <rect width="18" height="4" y="4" fill="#ffffff"/>
  <rect width="18" height="4" y="8" fill="#000000"/>
  <g fill="#ce1126">
    <path d="M5 4.7 5.47 6.15 7 6.15 5.76 7.04 6.24 8.5 5 7.6 3.76 8.5 4.24 7.04 3 6.15 4.53 6.15Z"/>
    <path d="M9 4.7 9.47 6.15 11 6.15 9.76 7.04 10.24 8.5 9 7.6 7.76 8.5 8.24 7.04 7 6.15 8.53 6.15Z"/>
    <path d="M13 4.7 13.47 6.15 15 6.15 13.76 7.04 14.24 8.5 13 7.6 11.76 8.5 12.24 7.04 11 6.15 12.53 6.15Z"/>
  </g>
</svg>
